# ProBuilder 4.4.0
# https://unity3d.com/unity/features/worldbuilding/probuilder
# 27.06.2021 16:54:58

mtllib ./Prism.mtl
o Prism

g Prism
v 0 0 0
v -1 0 0
v -0.5 30 0
v -1 0 1
v -0.5 30 1
v 0 0 1

vt 0 0
vt 1 0
vt 0.5 30
vt 0 -0.01666435
vt 1 -0.01666435
vt 0 29.9875
vt 1 29.9875
vt -1 0
vt -0.5 30
vt -1 30.00417
vt 0 30.00417
vt 0 1
vt -1 1

vn 0 0 -1
vn -0.9998612 0.01666435 0
vn 0 0 1
vn 0.9998612 0.01666435 0
vn 0 -1 0

usemtl Cylindermat
f 1/1/1 2/2/1 3/3/1
f 4/8/3 6/1/3 5/9/3
f 3/6/2 2/4/2 4/5/2
f 4/5/2 5/7/2 3/6/2
f 5/10/4 6/8/4 1/1/4
f 1/1/4 3/11/4 5/10/4
f 4/13/5 2/8/5 1/1/5
f 1/1/5 6/12/5 4/13/5

